# xmcd CD database file
#
# Track frame offsets:
#	150
#	54167
#	99890
#	134310
#	155232
#
# Disc length: 2647 seconds
#
# Revision: 0
# Processed by: cddbd v1.5.1PL0 Copyright (c) Steve Scherf et al.
# Submitted via: CDex 1.51
#
DISCID=370a5505
DTITLE=Eddie "Lockjaw" Davis and Johnny Griffin - The Tenor Scene
DYEAR=1961
DGENRE=Jazz
TTITLE0=Light and Lovely
TTITLE1=Straight, No Chaser
TTITLE2=Woody'n You
TTITLE3=Bingo Domingo
TTITLE4=I'll Remember April
EXTD=YEAR: 1961
EXTT0=
EXTT1=
EXTT2=
EXTT3=
EXTT4=
PLAYORDER=
